# xmcd
#
# Track frame offsets:
# 150
# 26772
# 43358
# 63324
# 78610
# 93948
# 109910
# 127224
# 137206
# 152960
# 169182
# 188472
# 201834
# 219512
# 244158
# 258508
#
# Disc length: 3630 seconds
#
#
# Revision: 0
# Processed by: cddbd v1.5.2PL0 Copyright (c) Steve Scherf et al.
# Submitted via: FreeRIP 2.945 
#
DISCID=f00e2c10
DTITLE=Riptide - No More
DYEAR=1997
DGENRE=Country
TTITLE0=Southern Grace
TTITLE1=Tennessee River
TTITLE2=I'm Gonna Be Somebody
TTITLE3=God Bless Texas
TTITLE4=Country Crazy
TTITLE5=Walk Softly
TTITLE6=Kick a Little
TTITLE7=She's Cool
TTITLE8=Prop Me Up
TTITLE9=Mama Don't Get Dressed Up
TTITLE10=Your Gonna Miss Me
TTITLE11=I Like It I Love It
TTITLE12=Bad Boys Of Country (Riptide Original)
TTITLE13=Mustang Sally
TTITLE14=Honky Tonk Woman
TTITLE15=My Girl
EXTD=Track 8 Written by George White - Sweat Sock Music.
EXTT0=
EXTT1=
EXTT2=
EXTT3=
EXTT4=
EXTT5=
EXTT6=
EXTT7=
EXTT8=
EXTT9=
EXTT10=
EXTT11=
EXTT12=
EXTT13=
EXTT14=
EXTT15=
PLAYORDER=
